# xmcd
#
# Track frame offsets:
#	150
#	22108
#	37842
#	53968
#	67543
#	85232
#	102553
#	112537
#	128508
#	144951
#	163586
#
# Disc length: 2407 seconds
#
# Revision: 1
# Processed by: cddbd v1.5.2PL0 Copyright (c) Steve Scherf et al.
# Submitted via: audiograbber 1.83.01
#
DISCID=7d09650b
DTITLE=Highway 101 - Highway 101² 
DYEAR=1988
DGENRE=Country
TTITLE0=Come Here You
TTITLE1=Honky Tonk Heart
TTITLE2=The Road To Your Heart
TTITLE3=Feed This Fire
TTITLE4=Settin' Me Up
TTITLE5=Somewhere Between Gone And Goodbye
TTITLE6=There Goes My Love
TTITLE7=Desperate Road
TTITLE8=All The Reasons Why
TTITLE9=It's A Long Way Down
TTITLE10=(Do You Love Me) Just Say Yes
EXTD=
EXTT0=
EXTT1=
EXTT2=
EXTT3=
EXTT4=
EXTT5=
EXTT6=
EXTT7=
EXTT8=
EXTT9=
EXTT10=
PLAYORDER=
